<?xml version="1.0" encoding="UTF-8" standalone="no"?>
<!DOCTYPE svg PUBLIC "-//W3C//DTD SVG 1.1//EN"
 "http://www.w3.org/Graphics/SVG/1.1/DTD/svg11.dtd">
<!-- Generated by graphviz version 2.38.0 (20140413.2041)
 -->
<!-- Title: dependencies Pages: 1 -->
<svg width="2319pt" height="355pt"
 viewBox="0.00 0.00 2319.00 355.00" xmlns="http://www.w3.org/2000/svg" xmlns:xlink="http://www.w3.org/1999/xlink">
<g id="graph0" class="graph" transform="scale(1 1) rotate(0) translate(4 351)">
<title>dependencies</title>
<polygon fill="white" stroke="none" points="-4,4 -4,-351 2315,-351 2315,4 -4,4"/>
<text text-anchor="start" x="1134.51" y="-42.4" font-family="sans-serif" font-weight="bold" font-size="14.00">Legend</text>
<polygon fill="#ffffb3" stroke="none" points="921.5,-10 921.5,-30 941.5,-30 941.5,-10 921.5,-10"/>
<text text-anchor="start" x="945.129" y="-15.4" font-family="sans-serif" font-size="14.00"> &#160;Declarations</text>
<polygon fill="#8dd3c7" stroke="none" points="1034.5,-10 1034.5,-30 1054.5,-30 1054.5,-10 1034.5,-10"/>
<text text-anchor="start" x="1058.23" y="-15.4" font-family="sans-serif" font-size="14.00"> &#160;Module</text>
<polygon fill="#80b1d3" stroke="none" points="1120.5,-10 1120.5,-30 1140.5,-30 1140.5,-10 1120.5,-10"/>
<text text-anchor="start" x="1144.28" y="-15.4" font-family="sans-serif" font-size="14.00"> &#160;Bootstrap</text>
<polygon fill="#fdb462" stroke="none" points="1217.5,-10 1217.5,-30 1237.5,-30 1237.5,-10 1217.5,-10"/>
<text text-anchor="start" x="1241.17" y="-15.4" font-family="sans-serif" font-size="14.00"> &#160;Providers</text>
<polygon fill="#fb8072" stroke="none" points="1313.5,-10 1313.5,-30 1333.5,-30 1333.5,-10 1313.5,-10"/>
<text text-anchor="start" x="1337.23" y="-15.4" font-family="sans-serif" font-size="14.00"> &#160;Exports</text>
<g id="clust1" class="cluster"><title>cluster_AppRoutingModule</title>
<polygon fill="none" stroke="black" stroke-dasharray="1,5" points="8,-70 8,-271 218,-271 218,-70 8,-70"/>
</g>
<g id="clust3" class="cluster"><title>cluster_AppRoutingModule_imports</title>
<polygon fill="none" stroke="black" points="16,-78 16,-130 210,-130 210,-78 16,-78"/>
</g>
<g id="clust4" class="cluster"><title>cluster_AppRoutingModule_exports</title>
<polygon fill="none" stroke="black" points="70,-211 70,-263 188,-263 188,-211 70,-211"/>
</g>
<g id="clust7" class="cluster"><title>cluster_AppModule</title>
<polygon fill="none" stroke="black" stroke-dasharray="1,5" points="226,-138 226,-339 2303,-339 2303,-138 226,-138"/>
</g>
<g id="clust8" class="cluster"><title>cluster_AppModule_declarations</title>
<polygon fill="none" stroke="black" points="655,-146 655,-198 2295,-198 2295,-146 655,-146"/>
</g>
<g id="clust20" class="cluster"><title>cluster_AppModule_imports</title>
<polygon fill="none" stroke="black" points="388,-146 388,-198 647,-198 647,-146 388,-146"/>
</g>
<g id="clust22" class="cluster"><title>cluster_AppModule_bootstrap</title>
<polygon fill="none" stroke="black" points="1082,-279 1082,-331 1206,-331 1206,-279 1082,-279"/>
</g>
<g id="clust23" class="cluster"><title>cluster_AppModule_providers</title>
<polygon fill="none" stroke="black" points="234,-146 234,-198 380,-198 380,-146 234,-146"/>
</g>
<!-- RouterModule.forRoot(args) -->
<g id="node1" class="node"><title>RouterModule.forRoot(args)</title>
<polygon fill="#8dd3c7" stroke="black" points="201.842,-122 198.842,-126 177.842,-126 174.842,-122 24.1581,-122 24.1581,-86 201.842,-86 201.842,-122"/>
<text text-anchor="middle" x="113" y="-99.8" font-family="Times,serif" font-size="14.00">RouterModule.forRoot(args)</text>
</g>
<!-- AppRoutingModule -->
<g id="node2" class="node"><title>AppRoutingModule</title>
<polygon fill="#8dd3c7" stroke="black" points="193.274,-190 190.274,-194 169.274,-194 166.274,-190 64.7256,-190 64.7256,-154 193.274,-154 193.274,-190"/>
<text text-anchor="middle" x="129" y="-167.8" font-family="Times,serif" font-size="14.00">AppRoutingModule</text>
</g>
<!-- RouterModule.forRoot(args)&#45;&gt;AppRoutingModule -->
<g id="edge1" class="edge"><title>RouterModule.forRoot(args)&#45;&gt;AppRoutingModule</title>
<path fill="none" stroke="black" d="M129,-122.223C129,-122.223 129,-143.727 129,-143.727"/>
<polygon fill="black" stroke="black" points="125.5,-143.727 129,-153.727 132.5,-143.727 125.5,-143.727"/>
</g>
<!-- RouterModule  -->
<g id="node3" class="node"><title>RouterModule </title>
<polygon fill="#fb8072" stroke="black" points="179.652,-255 78.3477,-255 78.3477,-219 179.652,-219 179.652,-255"/>
<text text-anchor="middle" x="129" y="-232.8" font-family="Times,serif" font-size="14.00">RouterModule </text>
</g>
<!-- AppRoutingModule&#45;&gt;RouterModule  -->
<g id="edge2" class="edge"><title>AppRoutingModule&#45;&gt;RouterModule </title>
<path fill="none" stroke="black" stroke-dasharray="5,2" d="M129,-190.106C129,-190.106 129,-208.991 129,-208.991"/>
<polygon fill="black" stroke="black" points="125.5,-208.991 129,-218.991 132.5,-208.991 125.5,-208.991"/>
</g>
<!-- AppModule -->
<g id="node15" class="node"><title>AppModule</title>
<polygon fill="#8dd3c7" stroke="black" points="1185.66,-255 1182.66,-259 1161.66,-259 1158.66,-255 1102.34,-255 1102.34,-219 1185.66,-219 1185.66,-255"/>
<text text-anchor="middle" x="1144" y="-232.8" font-family="Times,serif" font-size="14.00">AppModule</text>
</g>
<!-- AppRoutingModule&#45;&gt;AppModule -->
<g id="edge16" class="edge"><title>AppRoutingModule&#45;&gt;AppModule</title>
<path fill="none" stroke="black" d="M186.482,-190.323C186.482,-213.66 186.482,-251 186.482,-251 186.482,-251 1092.24,-251 1092.24,-251"/>
<polygon fill="black" stroke="black" points="1092.24,-254.5 1102.24,-251 1092.24,-247.5 1092.24,-254.5"/>
</g>
<!-- AppComponent -->
<g id="node4" class="node"><title>AppComponent</title>
<polygon fill="#ffffb3" stroke="black" points="2286.94,-190 2181.06,-190 2181.06,-154 2286.94,-154 2286.94,-190"/>
<text text-anchor="middle" x="2234" y="-167.8" font-family="Times,serif" font-size="14.00">AppComponent</text>
</g>
<!-- AppComponent&#45;&gt;AppModule -->
<g id="edge3" class="edge"><title>AppComponent&#45;&gt;AppModule</title>
<path fill="none" stroke="black" d="M2234,-190.323C2234,-213.66 2234,-251 2234,-251 2234,-251 1195.73,-251 1195.73,-251"/>
<polygon fill="black" stroke="black" points="1195.73,-247.5 1185.73,-251 1195.73,-254.5 1195.73,-247.5"/>
</g>
<!-- DashboardComponent -->
<g id="node5" class="node"><title>DashboardComponent</title>
<polygon fill="#ffffb3" stroke="black" points="2162.97,-190 2021.03,-190 2021.03,-154 2162.97,-154 2162.97,-190"/>
<text text-anchor="middle" x="2092" y="-167.8" font-family="Times,serif" font-size="14.00">DashboardComponent</text>
</g>
<!-- DashboardComponent&#45;&gt;AppModule -->
<g id="edge4" class="edge"><title>DashboardComponent&#45;&gt;AppModule</title>
<path fill="none" stroke="black" d="M2092,-190.292C2092,-212.206 2092,-246 2092,-246 2092,-246 1195.96,-246 1195.96,-246"/>
<polygon fill="black" stroke="black" points="1195.96,-242.5 1185.96,-246 1195.96,-249.5 1195.96,-242.5"/>
</g>
<!-- HouseDetailComponent -->
<g id="node6" class="node"><title>HouseDetailComponent</title>
<polygon fill="#ffffb3" stroke="black" points="2002.81,-190 1851.19,-190 1851.19,-154 2002.81,-154 2002.81,-190"/>
<text text-anchor="middle" x="1927" y="-167.8" font-family="Times,serif" font-size="14.00">HouseDetailComponent</text>
</g>
<!-- HouseDetailComponent&#45;&gt;AppModule -->
<g id="edge5" class="edge"><title>HouseDetailComponent&#45;&gt;AppModule</title>
<path fill="none" stroke="black" d="M1927,-190.027C1927,-210.767 1927,-242 1927,-242 1927,-242 1195.82,-242 1195.82,-242"/>
<polygon fill="black" stroke="black" points="1195.82,-238.5 1185.82,-242 1195.82,-245.5 1195.82,-238.5"/>
</g>
<!-- HousesComponent -->
<g id="node7" class="node"><title>HousesComponent</title>
<polygon fill="#ffffb3" stroke="black" points="1833.04,-190 1710.96,-190 1710.96,-154 1833.04,-154 1833.04,-190"/>
<text text-anchor="middle" x="1772" y="-167.8" font-family="Times,serif" font-size="14.00">HousesComponent</text>
</g>
<!-- HousesComponent&#45;&gt;AppModule -->
<g id="edge6" class="edge"><title>HousesComponent&#45;&gt;AppModule</title>
<path fill="none" stroke="black" d="M1772,-190.106C1772,-209.339 1772,-237 1772,-237 1772,-237 1195.69,-237 1195.69,-237"/>
<polygon fill="black" stroke="black" points="1195.69,-233.5 1185.69,-237 1195.69,-240.5 1195.69,-233.5"/>
</g>
<!-- HouseSearchComponent -->
<g id="node8" class="node"><title>HouseSearchComponent</title>
<polygon fill="#ffffb3" stroke="black" points="1692.69,-190 1537.31,-190 1537.31,-154 1692.69,-154 1692.69,-190"/>
<text text-anchor="middle" x="1615" y="-167.8" font-family="Times,serif" font-size="14.00">HouseSearchComponent</text>
</g>
<!-- HouseSearchComponent&#45;&gt;AppModule -->
<g id="edge7" class="edge"><title>HouseSearchComponent&#45;&gt;AppModule</title>
<path fill="none" stroke="black" d="M1615,-190.302C1615,-208.27 1615,-233 1615,-233 1615,-233 1195.8,-233 1195.8,-233"/>
<polygon fill="black" stroke="black" points="1195.8,-229.5 1185.8,-233 1195.8,-236.5 1195.8,-229.5"/>
</g>
<!-- MessagesComponent -->
<g id="node9" class="node"><title>MessagesComponent</title>
<polygon fill="#ffffb3" stroke="black" points="1519.75,-190 1384.25,-190 1384.25,-154 1519.75,-154 1519.75,-190"/>
<text text-anchor="middle" x="1452" y="-167.8" font-family="Times,serif" font-size="14.00">MessagesComponent</text>
</g>
<!-- MessagesComponent&#45;&gt;AppModule -->
<g id="edge8" class="edge"><title>MessagesComponent&#45;&gt;AppModule</title>
<path fill="none" stroke="black" d="M1452,-190.027C1452,-206.398 1452,-228 1452,-228 1452,-228 1195.86,-228 1195.86,-228"/>
<polygon fill="black" stroke="black" points="1195.86,-224.5 1185.86,-228 1195.86,-231.5 1195.86,-224.5"/>
</g>
<!-- HouseFormComponent -->
<g id="node10" class="node"><title>HouseFormComponent</title>
<polygon fill="#ffffb3" stroke="black" points="1365.93,-190 1218.07,-190 1218.07,-154 1365.93,-154 1365.93,-190"/>
<text text-anchor="middle" x="1292" y="-167.8" font-family="Times,serif" font-size="14.00">HouseFormComponent</text>
</g>
<!-- HouseFormComponent&#45;&gt;AppModule -->
<g id="edge9" class="edge"><title>HouseFormComponent&#45;&gt;AppModule</title>
<path fill="none" stroke="black" d="M1292,-190.187C1292,-205.182 1292,-224 1292,-224 1292,-224 1196.01,-224 1196.01,-224"/>
<polygon fill="black" stroke="black" points="1196.02,-220.5 1186.01,-224 1196.01,-227.5 1196.02,-220.5"/>
</g>
<!-- IndexComponent -->
<g id="node11" class="node"><title>IndexComponent</title>
<polygon fill="#ffffb3" stroke="black" points="1200.71,-190 1087.29,-190 1087.29,-154 1200.71,-154 1200.71,-190"/>
<text text-anchor="middle" x="1144" y="-167.8" font-family="Times,serif" font-size="14.00">IndexComponent</text>
</g>
<!-- IndexComponent&#45;&gt;AppModule -->
<g id="edge10" class="edge"><title>IndexComponent&#45;&gt;AppModule</title>
<path fill="none" stroke="black" d="M1144,-190.106C1144,-190.106 1144,-208.991 1144,-208.991"/>
<polygon fill="black" stroke="black" points="1140.5,-208.991 1144,-218.991 1147.5,-208.991 1140.5,-208.991"/>
</g>
<!-- AboutComponent -->
<g id="node12" class="node"><title>AboutComponent</title>
<polygon fill="#ffffb3" stroke="black" points="1069.33,-190 952.67,-190 952.67,-154 1069.33,-154 1069.33,-190"/>
<text text-anchor="middle" x="1011" y="-167.8" font-family="Times,serif" font-size="14.00">AboutComponent</text>
</g>
<!-- AboutComponent&#45;&gt;AppModule -->
<g id="edge11" class="edge"><title>AboutComponent&#45;&gt;AppModule</title>
<path fill="none" stroke="black" d="M1011,-190.187C1011,-205.182 1011,-224 1011,-224 1011,-224 1092.28,-224 1092.28,-224"/>
<polygon fill="black" stroke="black" points="1092.28,-227.5 1102.28,-224 1092.28,-220.5 1092.28,-227.5"/>
</g>
<!-- ContactComponent -->
<g id="node13" class="node"><title>ContactComponent</title>
<polygon fill="#ffffb3" stroke="black" points="934.379,-190 809.621,-190 809.621,-154 934.379,-154 934.379,-190"/>
<text text-anchor="middle" x="872" y="-167.8" font-family="Times,serif" font-size="14.00">ContactComponent</text>
</g>
<!-- ContactComponent&#45;&gt;AppModule -->
<g id="edge12" class="edge"><title>ContactComponent&#45;&gt;AppModule</title>
<path fill="none" stroke="black" d="M872,-190.027C872,-206.398 872,-228 872,-228 872,-228 1092.1,-228 1092.1,-228"/>
<polygon fill="black" stroke="black" points="1092.1,-231.5 1102.1,-228 1092.1,-224.5 1092.1,-231.5"/>
</g>
<!-- ServicesComponent -->
<g id="node14" class="node"><title>ServicesComponent</title>
<polygon fill="#ffffb3" stroke="black" points="791.255,-190 662.745,-190 662.745,-154 791.255,-154 791.255,-190"/>
<text text-anchor="middle" x="727" y="-167.8" font-family="Times,serif" font-size="14.00">ServicesComponent</text>
</g>
<!-- ServicesComponent&#45;&gt;AppModule -->
<g id="edge13" class="edge"><title>ServicesComponent&#45;&gt;AppModule</title>
<path fill="none" stroke="black" d="M727,-190.302C727,-208.27 727,-233 727,-233 727,-233 1092.11,-233 1092.11,-233"/>
<polygon fill="black" stroke="black" points="1092.11,-236.5 1102.11,-233 1092.11,-229.5 1092.11,-236.5"/>
</g>
<!-- AppComponent  -->
<g id="node18" class="node"><title>AppComponent </title>
<polygon fill="#80b1d3" stroke="black" points="1198.44,-323 1089.56,-323 1089.56,-287 1198.44,-287 1198.44,-323"/>
<text text-anchor="middle" x="1144" y="-300.8" font-family="Times,serif" font-size="14.00">AppComponent </text>
</g>
<!-- AppModule&#45;&gt;AppComponent  -->
<g id="edge17" class="edge"><title>AppModule&#45;&gt;AppComponent </title>
<path fill="none" stroke="black" stroke-dasharray="1,5" d="M1144,-255.223C1144,-255.223 1144,-276.727 1144,-276.727"/>
<polygon fill="black" stroke="black" points="1140.5,-276.727 1144,-286.727 1147.5,-276.727 1140.5,-276.727"/>
</g>
<!-- BrowserModule -->
<g id="node16" class="node"><title>BrowserModule</title>
<polygon fill="#8dd3c7" stroke="black" points="639.473,-190 636.473,-194 615.473,-194 612.473,-190 532.527,-190 532.527,-154 639.473,-154 639.473,-190"/>
<text text-anchor="middle" x="586" y="-167.8" font-family="Times,serif" font-size="14.00">BrowserModule</text>
</g>
<!-- BrowserModule&#45;&gt;AppModule -->
<g id="edge14" class="edge"><title>BrowserModule&#45;&gt;AppModule</title>
<path fill="none" stroke="black" d="M586,-190.106C586,-209.339 586,-237 586,-237 586,-237 1092.06,-237 1092.06,-237"/>
<polygon fill="black" stroke="black" points="1092.06,-240.5 1102.06,-237 1092.06,-233.5 1092.06,-240.5"/>
</g>
<!-- HttpClientModule -->
<g id="node17" class="node"><title>HttpClientModule</title>
<polygon fill="#8dd3c7" stroke="black" points="514.161,-190 511.161,-194 490.161,-194 487.161,-190 395.839,-190 395.839,-154 514.161,-154 514.161,-190"/>
<text text-anchor="middle" x="455" y="-167.8" font-family="Times,serif" font-size="14.00">HttpClientModule</text>
</g>
<!-- HttpClientModule&#45;&gt;AppModule -->
<g id="edge15" class="edge"><title>HttpClientModule&#45;&gt;AppModule</title>
<path fill="none" stroke="black" d="M455,-190.027C455,-210.767 455,-242 455,-242 455,-242 1092.19,-242 1092.19,-242"/>
<polygon fill="black" stroke="black" points="1092.19,-245.5 1102.19,-242 1092.19,-238.5 1092.19,-245.5"/>
</g>
<!-- HouseService -->
<g id="node19" class="node"><title>HouseService</title>
<ellipse fill="#fdb462" stroke="black" cx="307" cy="-172" rx="64.8254" ry="18"/>
<text text-anchor="middle" x="307" y="-167.8" font-family="Times,serif" font-size="14.00">HouseService</text>
</g>
<!-- HouseService&#45;&gt;AppModule -->
<g id="edge18" class="edge"><title>HouseService&#45;&gt;AppModule</title>
<path fill="none" stroke="black" d="M307,-190.292C307,-212.206 307,-246 307,-246 307,-246 1092.21,-246 1092.21,-246"/>
<polygon fill="black" stroke="black" points="1092.21,-249.5 1102.21,-246 1092.21,-242.5 1092.21,-249.5"/>
</g>
</g>
</svg>
